<mxfile host="Electron" modified="2023-04-19T23:46:02.820Z" agent="Mozilla/5.0 (Windows NT 10.0; Win64; x64) AppleWebKit/537.36 (KHTML, like Gecko) draw.io/21.1.2 Chrome/106.0.5249.199 Electron/21.4.3 Safari/537.36" etag="g0YvZbyhYr3yIXCTenqx" version="21.1.2" type="device">
  <diagram name="Page-1" id="PRG-cZwb9iw7NMbtxZb5">
    <mxGraphModel dx="1111" dy="552" grid="0" gridSize="10" guides="1" tooltips="1" connect="1" arrows="1" fold="1" page="0" pageScale="1" pageWidth="1200" pageHeight="1600" background="none" math="1" shadow="0">
      <root>
        <mxCell id="0" />
        <mxCell id="1" parent="0" />
        <mxCell id="wDvK7cJ-PcxT9ymYGjG6-4" style="edgeStyle=orthogonalEdgeStyle;rounded=0;orthogonalLoop=1;jettySize=auto;html=1;" parent="1" source="wDvK7cJ-PcxT9ymYGjG6-1" target="wDvK7cJ-PcxT9ymYGjG6-3" edge="1">
          <mxGeometry relative="1" as="geometry" />
        </mxCell>
        <mxCell id="wDvK7cJ-PcxT9ymYGjG6-1" value="Contextualização" style="rounded=1;whiteSpace=wrap;html=1;absoluteArcSize=1;arcSize=14;strokeWidth=2;" parent="1" vertex="1">
          <mxGeometry x="40" y="40" width="110" height="50" as="geometry" />
        </mxCell>
        <mxCell id="wDvK7cJ-PcxT9ymYGjG6-11" value="" style="edgeStyle=orthogonalEdgeStyle;rounded=0;orthogonalLoop=1;jettySize=auto;html=1;" parent="1" source="wDvK7cJ-PcxT9ymYGjG6-3" target="wDvK7cJ-PcxT9ymYGjG6-7" edge="1">
          <mxGeometry relative="1" as="geometry" />
        </mxCell>
        <mxCell id="wDvK7cJ-PcxT9ymYGjG6-3" value="Exploração dos dados brutos" style="rounded=1;whiteSpace=wrap;html=1;absoluteArcSize=1;arcSize=14;strokeWidth=2;" parent="1" vertex="1">
          <mxGeometry x="240" y="40" width="110" height="50" as="geometry" />
        </mxCell>
        <mxCell id="wDvK7cJ-PcxT9ymYGjG6-13" style="edgeStyle=orthogonalEdgeStyle;rounded=0;orthogonalLoop=1;jettySize=auto;html=1;entryX=0.5;entryY=0;entryDx=0;entryDy=0;" parent="1" source="wDvK7cJ-PcxT9ymYGjG6-7" target="wDvK7cJ-PcxT9ymYGjG6-10" edge="1">
          <mxGeometry relative="1" as="geometry">
            <Array as="points">
              <mxPoint x="495" y="111" />
              <mxPoint x="295" y="111" />
            </Array>
          </mxGeometry>
        </mxCell>
        <mxCell id="wDvK7cJ-PcxT9ymYGjG6-7" value="Transformação do tipo de registros" style="rounded=1;whiteSpace=wrap;html=1;absoluteArcSize=1;arcSize=14;strokeWidth=2;" parent="1" vertex="1">
          <mxGeometry x="440" y="40" width="110" height="50" as="geometry" />
        </mxCell>
        <mxCell id="wDvK7cJ-PcxT9ymYGjG6-28" style="edgeStyle=orthogonalEdgeStyle;rounded=0;orthogonalLoop=1;jettySize=auto;html=1;" parent="1" source="wDvK7cJ-PcxT9ymYGjG6-10" target="wDvK7cJ-PcxT9ymYGjG6-1" edge="1">
          <mxGeometry relative="1" as="geometry" />
        </mxCell>
        <mxCell id="wDvK7cJ-PcxT9ymYGjG6-10" value="Exploração dos dados transformados" style="rounded=1;whiteSpace=wrap;html=1;absoluteArcSize=1;arcSize=14;strokeWidth=2;" parent="1" vertex="1">
          <mxGeometry x="240" y="134" width="110" height="50" as="geometry" />
        </mxCell>
        <mxCell id="wDvK7cJ-PcxT9ymYGjG6-16" style="edgeStyle=orthogonalEdgeStyle;rounded=0;orthogonalLoop=1;jettySize=auto;html=1;entryX=1;entryY=0.5;entryDx=0;entryDy=0;startArrow=classic;startFill=1;" parent="1" source="wDvK7cJ-PcxT9ymYGjG6-15" target="wDvK7cJ-PcxT9ymYGjG6-10" edge="1">
          <mxGeometry relative="1" as="geometry" />
        </mxCell>
        <mxCell id="wDvK7cJ-PcxT9ymYGjG6-20" style="edgeStyle=orthogonalEdgeStyle;rounded=0;orthogonalLoop=1;jettySize=auto;html=1;entryX=0;entryY=0.5;entryDx=0;entryDy=0;" parent="1" source="wDvK7cJ-PcxT9ymYGjG6-15" target="wDvK7cJ-PcxT9ymYGjG6-19" edge="1">
          <mxGeometry relative="1" as="geometry" />
        </mxCell>
        <mxCell id="wDvK7cJ-PcxT9ymYGjG6-15" value="Criação/ Transformação de recursos" style="rounded=1;whiteSpace=wrap;html=1;absoluteArcSize=1;arcSize=14;strokeWidth=2;" parent="1" vertex="1">
          <mxGeometry x="440" y="134" width="110" height="50" as="geometry" />
        </mxCell>
        <mxCell id="wDvK7cJ-PcxT9ymYGjG6-24" value="" style="edgeStyle=orthogonalEdgeStyle;rounded=0;orthogonalLoop=1;jettySize=auto;html=1;strokeColor=none;startArrow=open;startFill=0;" parent="1" source="wDvK7cJ-PcxT9ymYGjG6-19" target="wDvK7cJ-PcxT9ymYGjG6-23" edge="1">
          <mxGeometry relative="1" as="geometry" />
        </mxCell>
        <mxCell id="wDvK7cJ-PcxT9ymYGjG6-25" value="" style="edgeStyle=orthogonalEdgeStyle;rounded=0;orthogonalLoop=1;jettySize=auto;html=1;startArrow=classic;startFill=1;" parent="1" source="wDvK7cJ-PcxT9ymYGjG6-19" target="wDvK7cJ-PcxT9ymYGjG6-23" edge="1">
          <mxGeometry relative="1" as="geometry" />
        </mxCell>
        <mxCell id="wDvK7cJ-PcxT9ymYGjG6-19" value="Modelação" style="rounded=1;whiteSpace=wrap;html=1;absoluteArcSize=1;arcSize=14;strokeWidth=2;" parent="1" vertex="1">
          <mxGeometry x="640" y="134" width="110" height="50" as="geometry" />
        </mxCell>
        <mxCell id="wDvK7cJ-PcxT9ymYGjG6-26" style="edgeStyle=orthogonalEdgeStyle;rounded=0;orthogonalLoop=1;jettySize=auto;html=1;entryX=0.5;entryY=1;entryDx=0;entryDy=0;" parent="1" source="wDvK7cJ-PcxT9ymYGjG6-23" target="wDvK7cJ-PcxT9ymYGjG6-15" edge="1">
          <mxGeometry relative="1" as="geometry">
            <Array as="points">
              <mxPoint x="885" y="204" />
              <mxPoint x="495" y="204" />
            </Array>
          </mxGeometry>
        </mxCell>
        <mxCell id="wDvK7cJ-PcxT9ymYGjG6-35" value="" style="edgeStyle=orthogonalEdgeStyle;rounded=0;orthogonalLoop=1;jettySize=auto;html=1;" parent="1" source="wDvK7cJ-PcxT9ymYGjG6-23" target="wDvK7cJ-PcxT9ymYGjG6-34" edge="1">
          <mxGeometry relative="1" as="geometry" />
        </mxCell>
        <mxCell id="wDvK7cJ-PcxT9ymYGjG6-23" value="Avaliação" style="rounded=1;whiteSpace=wrap;html=1;absoluteArcSize=1;arcSize=14;strokeWidth=2;" parent="1" vertex="1">
          <mxGeometry x="830" y="134" width="110" height="50" as="geometry" />
        </mxCell>
        <mxCell id="wDvK7cJ-PcxT9ymYGjG6-34" value="Preparação" style="ellipse;whiteSpace=wrap;html=1;rounded=1;arcSize=14;strokeWidth=2;" parent="1" vertex="1">
          <mxGeometry x="1035" y="119" width="80" height="80" as="geometry" />
        </mxCell>
      </root>
    </mxGraphModel>
  </diagram>
</mxfile>
